<svg width="484" height="105" viewBox="0 0 484 105" fill="none" xmlns="http://www.w3.org/2000/svg">
<g clip-path="url(#clip0_124_14)">
<path fill-rule="evenodd" clip-rule="evenodd" d="M296.383 84.48C295.935 84.48 295.391 84.32 294.751 84C294.431 83.808 294.175 83.552 293.983 83.232C293.919 83.04 293.759 83.04 293.503 83.232C293.311 83.36 293.151 83.36 293.023 83.232C292.831 83.04 292.639 82.912 292.447 82.848C292.191 82.848 292.063 82.752 292.063 82.56C292.063 82.368 292.031 82.208 291.967 82.08C291.967 81.888 291.903 81.728 291.775 81.6C291.391 81.472 291.135 81.152 291.007 80.64C290.943 80.448 290.879 80.288 290.815 80.16C290.751 79.968 290.655 79.776 290.527 79.584C290.399 79.328 290.335 79.104 290.335 78.912C290.271 78.72 290.207 78.56 290.143 78.432C290.143 78.24 290.079 78.048 289.951 77.856C289.887 77.408 289.759 76.992 289.567 76.608C289.375 76.224 289.215 75.808 289.087 75.36C288.959 75.104 288.895 74.752 288.895 74.304L284.767 23.328C284.703 23.2 284.671 23.104 284.671 23.04C284.671 22.912 284.639 22.784 284.575 22.656C284.447 22.336 284.511 22.048 284.767 21.792C284.959 21.536 285.087 21.28 285.151 21.024C285.151 20.832 285.183 20.672 285.247 20.544C285.375 20.352 285.471 20.16 285.535 19.968C285.599 19.776 285.663 19.552 285.727 19.296C285.855 19.104 285.951 19.04 286.015 19.104C286.463 19.104 286.783 19.04 286.975 18.912C287.423 18.592 287.903 18.528 288.415 18.72C288.543 18.784 288.735 18.752 288.991 18.624C289.055 18.624 289.087 18.592 289.087 18.528C289.407 18.208 289.759 18.048 290.143 18.048C290.527 17.984 290.943 17.984 291.391 18.048C291.455 18.048 291.519 18.08 291.583 18.144H291.775C292.287 18.272 292.767 18.4 293.215 18.528C293.727 18.592 294.207 18.592 294.655 18.528C294.975 18.528 295.295 18.56 295.615 18.624C295.999 18.688 296.351 18.72 296.671 18.72C296.927 18.72 297.151 18.752 297.343 18.816C297.599 18.88 297.823 18.944 298.015 19.008C298.271 19.072 298.495 19.168 298.687 19.296C298.879 19.36 299.103 19.392 299.359 19.392C299.679 19.456 299.935 19.52 300.127 19.584C300.383 19.648 300.639 19.744 300.895 19.872C301.727 20.32 302.559 20.736 303.391 21.12C303.775 21.312 304.127 21.568 304.447 21.888C304.895 22.208 305.279 22.4 305.599 22.464C305.663 22.464 305.727 22.496 305.791 22.56H305.983C306.047 22.624 306.111 22.656 306.175 22.656C306.239 22.656 306.303 22.688 306.367 22.752C306.687 23.072 307.071 23.328 307.519 23.52C308.031 23.648 308.447 23.872 308.767 24.192C308.895 24.32 309.087 24.448 309.343 24.576C309.855 24.768 310.303 25.056 310.687 25.44C310.815 25.568 310.911 25.632 310.975 25.632C311.231 25.632 311.519 25.792 311.839 26.112L313.855 28.224C314.111 28.48 314.303 28.704 314.431 28.896C314.751 29.344 315.103 29.76 315.487 30.144L316.639 31.296C316.767 31.424 316.895 31.584 317.023 31.776C317.215 31.904 317.343 32.064 317.407 32.256C317.471 32.384 317.567 32.512 317.695 32.64C317.823 32.704 317.919 32.8 317.983 32.928C318.687 33.696 319.359 34.496 319.999 35.328C320.703 36.16 321.343 37.024 321.919 37.92C322.239 38.368 322.527 38.848 322.783 39.36C323.039 39.872 323.263 40.384 323.455 40.896L324.031 42.24C324.287 42.688 324.511 43.136 324.703 43.584C324.895 44.288 325.119 44.928 325.375 45.504C325.631 46.336 325.887 47.136 326.143 47.904C326.399 48.672 326.623 49.504 326.815 50.4L327.103 51.648V53.28C327.167 53.792 327.199 54.336 327.199 54.912C327.199 55.168 327.167 55.392 327.103 55.584C327.103 55.776 327.039 56 326.911 56.256C326.783 56.64 326.719 56.992 326.719 57.312C326.655 57.952 326.495 58.56 326.239 59.136C326.047 59.712 325.823 60.256 325.567 60.768C324.991 61.792 324.479 62.816 324.031 63.84L323.647 64.608C323.583 64.8 323.487 65.024 323.359 65.28L322.783 66.432C322.335 67.328 321.791 68.224 321.151 69.12C320.575 69.952 319.935 70.752 319.231 71.52C318.975 71.84 318.655 72.16 318.271 72.48C317.951 72.736 317.631 73.024 317.311 73.344L315.391 75.072C314.751 75.584 314.079 76.096 313.375 76.608C312.735 77.056 312.063 77.472 311.359 77.856C310.719 78.24 310.015 78.56 309.247 78.816C308.863 78.88 308.479 79.072 308.095 79.392C307.711 79.648 307.295 79.904 306.847 80.16C306.463 80.416 306.047 80.704 305.599 81.024C305.407 81.088 305.215 81.184 305.023 81.312C304.831 81.376 304.607 81.44 304.351 81.504C304.159 81.568 303.935 81.632 303.679 81.696L303.103 81.888C302.847 81.952 302.591 82.048 302.335 82.176C302.143 82.304 301.951 82.464 301.759 82.656C301.311 82.976 300.831 83.232 300.319 83.424C299.807 83.68 299.295 83.968 298.783 84.288C298.655 84.352 298.431 84.384 298.111 84.384C297.919 84.448 297.727 84.448 297.535 84.384H296.959V84.48H296.383ZM301.855 73.344C301.407 73.6 300.863 73.728 300.223 73.728C299.839 73.728 299.647 73.568 299.647 73.248C299.519 72.864 299.455 72.544 299.455 72.288V71.424C299.455 71.104 299.391 70.784 299.263 70.464C299.199 70.336 299.167 70.176 299.167 69.984C299.231 69.792 299.263 69.632 299.263 69.504V68.16C299.263 67.712 299.199 67.264 299.071 66.816C299.007 66.624 298.975 66.432 298.975 66.24V65.568C298.975 64.736 298.879 63.936 298.687 63.168C298.303 61.312 298.015 59.488 297.823 57.696C297.759 57.184 297.695 56.704 297.631 56.256C297.567 55.808 297.535 55.36 297.535 54.912C297.535 54.72 297.503 54.56 297.439 54.432C297.375 54.24 297.343 54.08 297.343 53.952L296.959 52.416C296.895 51.84 296.799 51.296 296.671 50.784C296.607 50.656 296.575 50.528 296.575 50.4C296.639 50.208 296.671 50.048 296.671 49.92V48.384C296.543 48.128 296.479 47.936 296.479 47.808C296.415 47.104 296.319 46.4 296.191 45.696C296.127 44.992 296.095 44.288 296.095 43.584C296.159 43.264 296.159 42.976 296.095 42.72C296.095 42.464 296.063 42.208 295.999 41.952C295.807 41.184 295.807 40.416 295.999 39.648C296.127 38.88 296.063 38.24 295.807 37.728C295.615 37.28 295.615 36.864 295.807 36.48C295.999 36.16 296.031 35.808 295.903 35.424C295.839 35.104 295.807 34.816 295.807 34.56L295.999 33.792C296.191 33.216 296.223 32.48 296.095 31.584V30.144C296.159 29.632 296.191 29.152 296.191 28.704C296.191 28.32 296.351 28 296.671 27.744C296.799 27.616 296.959 27.552 297.151 27.552C297.663 27.616 298.207 27.712 298.783 27.84C299.359 27.904 299.871 28 300.319 28.128C301.471 28.384 302.623 28.928 303.775 29.76C305.695 31.04 307.391 32.48 308.863 34.08C309.375 34.528 309.791 35.04 310.111 35.616C310.495 36.192 310.847 36.768 311.167 37.344C311.487 37.856 311.743 38.4 311.935 38.976L312.703 40.704C312.831 40.96 312.927 41.248 312.991 41.568C313.119 41.824 313.279 42.08 313.471 42.336L313.567 42.72C313.695 43.168 313.855 43.616 314.047 44.064L314.623 45.216L315.007 46.368C315.135 46.688 315.199 47.072 315.199 47.52L315.391 48.288C315.455 48.544 315.551 48.8 315.679 49.056C315.807 49.248 315.871 49.472 315.871 49.728C315.935 49.92 315.999 50.144 316.063 50.4C316.063 50.656 316.095 50.944 316.159 51.264L316.351 52.224C316.543 53.312 316.607 54.336 316.543 55.296C316.543 55.68 316.511 55.968 316.447 56.16C316.447 56.928 316.255 57.76 315.871 58.656L315.487 59.616C315.167 60.384 314.847 60.96 314.527 61.344C314.271 61.6 314.015 61.888 313.759 62.208C313.567 62.528 313.407 62.848 313.279 63.168C313.215 63.36 313.023 63.552 312.703 63.744C312.255 64.064 311.903 64.448 311.647 64.896C311.583 65.024 311.455 65.184 311.263 65.376L310.783 65.856C310.591 66.112 310.367 66.368 310.111 66.624L309.439 67.296L309.247 67.488C308.607 67.936 307.999 68.448 307.423 69.024C306.911 69.6 306.335 70.144 305.695 70.656L304.543 71.808C304.159 72.128 303.743 72.416 303.295 72.672C302.847 72.928 302.367 73.152 301.855 73.344Z" fill="#F18E00"/>
<path fill-rule="evenodd" clip-rule="evenodd" d="M153.213 86.88C151.805 87.136 150.557 86.688 149.469 85.536C149.277 85.344 149.085 85.12 148.893 84.864C148.765 84.608 148.605 84.352 148.413 84.096L148.125 83.328C147.613 81.984 147.165 80.64 146.781 79.296C146.461 77.888 146.205 76.48 146.013 75.072C145.821 74.112 145.725 73.216 145.725 72.384C145.661 71.552 145.565 70.72 145.437 69.888C145.373 69.056 145.341 68.224 145.341 67.392V66.24C145.341 65.792 145.277 65.344 145.149 64.896V64.704L144.957 62.592C144.957 61.824 144.893 61.088 144.765 60.384L144.477 55.968C144.413 55.328 144.349 54.72 144.285 54.144C144.221 53.568 144.125 52.96 143.997 52.32C143.997 52.064 143.965 51.84 143.901 51.648V50.88V49.344C143.901 48.832 143.869 48.352 143.805 47.904C143.741 47.648 143.709 47.296 143.709 46.848V43.776C143.773 42.88 143.741 41.984 143.613 41.088C143.485 40.192 143.357 39.328 143.229 38.496L142.365 33.312C142.301 33.184 142.269 33.024 142.269 32.832V32.352V31.872C142.269 31.68 142.237 31.52 142.173 31.392C141.981 30.688 141.949 30.048 142.077 29.472C142.205 28.832 142.365 28.192 142.557 27.552C142.621 27.488 142.717 27.328 142.845 27.072L143.709 26.208C143.965 25.888 144.285 25.632 144.669 25.44C145.053 25.312 145.341 25.024 145.533 24.576L145.821 23.904C146.461 22.752 147.453 21.952 148.797 21.504C148.861 21.44 148.925 21.408 148.989 21.408C149.117 21.408 149.213 21.376 149.277 21.312C150.109 20.928 150.973 20.896 151.869 21.216C152.189 21.28 152.509 21.376 152.829 21.504C153.149 21.568 153.437 21.664 153.693 21.792C154.141 21.984 154.557 22.208 154.941 22.464C155.325 22.656 155.741 22.848 156.189 23.04L159.645 24.768L163.101 26.304L165.597 27.456L166.749 28.032C167.133 28.16 167.517 28.32 167.901 28.512L168.669 28.8L169.821 29.568C170.205 29.76 170.621 29.984 171.069 30.24C171.709 30.56 172.317 30.976 172.893 31.488C173.469 32 173.981 32.512 174.429 33.024C174.813 33.408 175.037 33.76 175.101 34.08C175.293 34.592 175.485 35.136 175.677 35.712C175.869 36.224 175.997 36.736 176.061 37.248C176.189 37.504 176.189 37.792 176.061 38.112C175.869 38.56 175.677 39.04 175.485 39.552C175.357 40 175.229 40.48 175.101 40.992C174.653 42.208 173.949 43.296 172.989 44.256C172.157 45.088 171.357 45.76 170.589 46.272C170.269 46.464 169.949 46.688 169.629 46.944L168.669 47.52C167.965 47.968 167.229 48.384 166.461 48.768C165.693 49.152 164.893 49.472 164.061 49.728C163.869 49.728 163.709 49.792 163.581 49.92C162.941 50.176 162.333 50.432 161.757 50.688C161.181 50.944 160.605 51.232 160.029 51.552C159.453 51.872 159.069 52.32 158.877 52.896C158.877 52.96 158.845 53.024 158.781 53.088V53.28C158.717 53.792 158.493 54.24 158.109 54.624C157.789 55.008 157.469 55.424 157.149 55.872C157.149 55.936 157.117 55.968 157.053 55.968C156.989 55.968 156.925 56 156.861 56.064L155.709 56.64C155.389 56.768 155.229 57.056 155.229 57.504V58.368C155.229 58.624 155.261 58.88 155.325 59.136L155.709 61.248V62.016C155.773 62.208 155.773 62.464 155.709 62.784V64.416C155.773 64.992 155.837 65.536 155.901 66.048C155.965 66.304 155.997 66.56 155.997 66.816V67.488V68.544L156.189 69.504V69.792C156.253 69.856 156.285 69.952 156.285 70.08C156.221 70.848 156.221 71.648 156.285 72.48C156.413 73.248 156.509 74.016 156.573 74.784V75.168C156.509 75.68 156.477 76.224 156.477 76.8C156.541 77.312 156.573 77.856 156.573 78.432C156.573 79.264 156.701 79.968 156.957 80.544C157.149 80.928 157.213 81.312 157.149 81.696C157.085 82.08 156.989 82.464 156.861 82.848C156.797 83.04 156.701 83.232 156.573 83.424C156.509 83.68 156.413 83.904 156.285 84.096C155.773 85.12 155.101 85.92 154.269 86.496C153.885 86.752 153.533 86.88 153.213 86.88ZM154.941 44.64L154.365 44.928C154.109 45.056 153.917 44.992 153.789 44.736L153.501 43.2C153.437 42.688 153.373 42.208 153.309 41.76C153.245 41.248 153.213 40.768 153.213 40.32C153.085 39.808 152.989 39.264 152.925 38.688V36.96V33.792C152.989 33.536 153.053 33.312 153.117 33.12L153.309 32.352C153.309 32.16 153.437 32.064 153.693 32.064L154.077 32.256C154.525 32.448 154.941 32.64 155.325 32.832C155.773 32.96 156.221 33.12 156.669 33.312C158.141 34.016 159.645 34.72 161.181 35.424L162.333 36C162.717 36.192 163.069 36.352 163.389 36.48C163.773 36.672 164.157 36.896 164.541 37.152C164.925 37.344 165.277 37.536 165.597 37.728L165.885 38.016C165.949 38.016 165.981 38.048 165.981 38.112C165.981 38.176 165.949 38.208 165.885 38.208C165.757 38.464 165.661 38.624 165.597 38.688C165.277 38.944 164.925 39.168 164.541 39.36C164.221 39.552 163.869 39.776 163.485 40.032L161.661 40.992L158.205 42.72C157.117 43.296 156.029 43.936 154.941 44.64Z" fill="#F18E00"/>
<path fill-rule="evenodd" clip-rule="evenodd" d="M219.488 90.1439C218.912 90.1439 218.4 89.9199 217.952 89.4719L217.568 88.8959L217.184 88.3199C216.608 86.9759 216.32 85.5679 216.32 84.0959L216.032 81.7919C215.84 80.8959 215.68 79.9999 215.552 79.1039C215.424 78.2079 215.2 77.3439 214.88 76.5119L214.304 74.8799C214.304 74.7519 214.272 74.6239 214.208 74.4959C214.208 74.3679 214.176 74.2399 214.112 74.1119L212.672 69.0239C212.608 68.8959 212.544 68.7359 212.48 68.5439C212.48 68.3519 212.416 68.1919 212.288 68.0639C212.096 67.6799 211.936 67.2959 211.808 66.9119C211.744 66.4639 211.648 66.0159 211.52 65.5679C211.456 65.2479 211.392 64.9599 211.328 64.7039C211.264 64.3839 211.168 64.0639 211.04 63.7439C210.912 63.3599 210.784 63.1359 210.656 63.0719C210.528 62.9439 210.24 62.9439 209.792 63.0719C209.472 63.1359 209.12 63.1999 208.736 63.2639C208.416 63.2639 208.096 63.3279 207.776 63.4559C207.52 63.5199 207.2 63.5839 206.816 63.6479C206.496 63.6479 206.176 63.6799 205.856 63.7439L204.512 64.0319C204.192 64.0959 203.84 64.1919 203.456 64.3199C203.136 64.3839 202.816 64.4159 202.496 64.4159L200.768 64.7039C200.256 64.8319 199.712 64.9599 199.136 65.0879C198.56 65.2159 198.016 65.3439 197.504 65.4719C195.968 65.8559 194.432 66.1439 192.896 66.3359C192.384 66.4639 192.096 66.6879 192.032 67.0079C191.968 67.0079 191.936 67.0399 191.936 67.1039C191.552 68.1279 191.104 69.1519 190.592 70.1759C190.144 71.1359 189.664 72.1279 189.152 73.1519L188.768 73.9199C188.704 74.1119 188.608 74.3359 188.48 74.5919C188.416 74.7199 188.352 74.8799 188.288 75.0719L188.096 75.4559C187.712 75.9039 187.52 76.4479 187.52 77.0879C187.456 77.4719 187.328 77.8559 187.136 78.2399L186.56 79.1999C186.496 79.3919 186.368 79.4879 186.176 79.4879C185.92 79.5519 185.664 79.6479 185.408 79.7759C185.152 79.9039 184.864 80.0319 184.544 80.1599C184.352 80.2239 184.16 80.2239 183.968 80.1599C183.84 80.0959 183.68 80.0319 183.488 79.9679C183.36 79.8399 183.232 79.7759 183.104 79.7759C182.4 79.7119 181.888 79.2959 181.568 78.5279C181.056 77.5039 180.704 76.4799 180.512 75.4559C180.448 75.1999 180.448 74.9759 180.512 74.7839C180.64 74.5919 180.736 74.3999 180.8 74.2079C181.184 73.9519 181.408 73.6639 181.472 73.3439V73.2479C181.472 72.4159 181.632 71.6479 181.952 70.9439C182.336 70.1759 182.656 69.4399 182.912 68.7359C183.04 68.3519 183.2 67.9679 183.392 67.5839L183.968 66.4319C184.224 65.9839 184.416 65.5679 184.544 65.1839C184.736 64.7359 184.896 64.2879 185.024 63.8399C185.216 63.3279 185.216 62.8479 185.024 62.3999C184.896 62.0159 184.832 61.6639 184.832 61.3439C184.832 60.9599 184.864 60.5759 184.928 60.1919C184.928 59.4879 185.184 58.8799 185.696 58.3679C185.952 58.0479 186.208 57.7919 186.464 57.5999C186.784 57.3439 187.072 57.0879 187.328 56.8319C187.904 56.2559 188.352 55.4879 188.672 54.5279C188.928 53.6959 189.12 52.8639 189.248 52.0319C189.44 51.1359 189.632 50.2719 189.824 49.4399C189.952 48.6079 190.08 47.8079 190.208 47.0399C190.4 46.2079 190.592 45.4079 190.784 44.6399C190.848 44.3199 190.912 44.0319 190.976 43.7759C191.104 43.4559 191.2 43.1679 191.264 42.9119C191.456 42.3999 191.648 41.9199 191.84 41.4719C192.032 40.9599 192.896 36.2879 192.896 36.2879C193.024 35.8399 193.184 35.3919 193.376 34.9439C193.696 34.1119 193.952 33.4399 194.144 32.9279C194.4 32.3519 194.624 31.7119 194.816 31.0079C194.944 30.6239 195.072 30.2719 195.2 29.9519C195.392 29.5679 195.52 29.1839 195.584 28.7999C195.776 28.2239 195.936 27.6479 196.064 27.0719C196.192 26.4319 196.256 25.8239 196.256 25.2479C196.384 24.7359 196.512 24.3839 196.64 24.1919C196.96 23.5519 197.344 23.0079 197.792 22.5599C198.304 22.1119 198.784 21.6639 199.232 21.2159C199.552 21.0239 199.872 20.8959 200.192 20.8319C200.512 20.7039 200.832 20.7359 201.152 20.9279C201.408 21.0559 201.568 21.1199 201.632 21.1199C202.208 21.0559 202.688 21.1839 203.072 21.5039C203.456 21.8239 203.776 22.2079 204.032 22.6559C204.16 22.7839 204.256 22.9439 204.32 23.1359C204.384 23.3279 204.448 23.4879 204.512 23.6159C204.832 24.1279 204.992 24.6399 204.992 25.1519C204.992 25.4079 205.024 25.6959 205.088 26.0159C205.152 26.2719 205.216 26.5599 205.28 26.8799C205.344 26.9439 205.292 26.8941 205.28 26.8799L206.624 30.4319C206.752 30.8799 206.88 31.3599 207.008 31.8719L207.776 33.7919L208.544 35.7119L209.504 37.8239C209.824 38.5279 210.112 39.2319 210.368 39.9359L211.328 42.6239C211.712 43.5199 212.128 44.4159 212.576 45.3119L212.864 46.3679L213.056 47.1359C213.184 47.3919 213.28 47.6479 213.344 47.9039C213.472 48.0959 213.568 48.2879 213.632 48.4799C213.76 48.6719 213.888 48.8319 214.016 48.9599C214.336 49.4079 214.528 49.8879 214.592 50.3999C214.784 51.0399 215.072 51.6159 215.456 52.1279C215.584 52.3199 215.776 52.4159 216.032 52.4159C216.992 52.2879 217.952 52.1919 218.912 52.1279C219.872 51.9999 220.832 51.8079 221.792 51.5519C222.496 51.3599 223.168 51.2639 223.808 51.2639C225.024 51.2639 226.144 51.6799 227.168 52.5119C228.384 53.4719 229.024 54.6879 229.088 56.1599C229.088 56.4799 229.12 56.7359 229.184 56.9279C229.184 57.3759 229.056 57.7279 228.8 57.9839C228.736 58.1759 228.608 58.3679 228.416 58.5599L228.032 59.1359C227.904 59.3919 227.776 59.5839 227.648 59.7119L227.072 60.1919C227.008 60.3199 226.912 60.4799 226.784 60.6719C226.656 60.7999 226.496 60.8959 226.304 60.9599C226.048 61.0239 225.792 61.1199 225.536 61.2479C225.28 61.3119 224.992 61.3439 224.672 61.3439C223.52 61.4719 222.496 61.4399 221.6 61.2479H220.064C219.936 61.2479 219.744 61.3119 219.488 61.4399C219.232 61.5679 219.104 61.7279 219.104 61.9199V62.3039C219.296 62.8799 219.424 63.4879 219.488 64.1279C219.616 64.7039 219.808 65.2479 220.064 65.7599C220.064 66.0159 220.128 66.2719 220.256 66.5279C220.576 67.1039 220.832 67.7119 221.024 68.3519C221.216 68.9279 221.376 69.5359 221.504 70.1759C221.504 70.3039 221.568 70.5599 221.696 70.9439C221.888 71.3919 222.048 71.8719 222.176 72.3839C222.304 72.8319 222.4 73.3119 222.464 73.8239C222.464 74.2079 222.56 74.5599 222.752 74.8799C223.008 75.4559 223.2 76.0319 223.328 76.6079C223.456 77.1839 223.552 77.7919 223.616 78.4319C223.68 78.4959 223.712 78.6239 223.712 78.8159C223.712 78.9439 223.744 79.0719 223.808 79.1999C224.128 79.9039 224.352 80.6719 224.48 81.5039C224.608 82.2719 224.768 83.0399 224.96 83.8079C225.088 84.1919 225.152 84.5759 225.152 84.9599C225.216 85.4079 225.248 85.8559 225.248 86.3039C225.248 86.6239 225.152 86.9759 224.96 87.3599L224.672 87.6479C224.288 87.7119 224.064 87.9359 224 88.3199L223.712 88.8959C223.584 89.1519 223.392 89.3119 223.136 89.3759C222.88 89.3759 222.656 89.4719 222.464 89.6639C222.208 89.9199 221.856 90.0479 221.408 90.0479H220.448C220.128 90.0479 219.808 90.0799 219.488 90.1439ZM197.504 55.1039L196.352 55.2959C196.288 55.2959 196.192 55.2639 196.064 55.1999C195.936 55.0719 195.904 54.9759 195.968 54.9119L196.832 51.1679C196.96 50.7199 197.056 50.3039 197.12 49.9199L197.312 48.5759C197.44 47.8079 197.6 47.0399 197.792 46.2719C198.048 45.5039 198.304 44.7999 198.56 44.1599L198.752 43.5839C198.816 43.3919 198.848 43.2319 198.848 43.1039C199.168 42.0159 199.52 40.9919 199.904 40.0319C200.352 39.0719 200.736 38.1119 201.056 37.1519L201.248 36.8639H201.536L201.824 37.2479L202.208 38.5919L202.784 39.9359L203.936 43.3919C204.128 43.8399 204.288 44.2879 204.416 44.7359C204.608 45.1199 204.768 45.5679 204.896 46.0799C205.088 46.5279 205.248 47.0079 205.376 47.5199C205.568 47.9679 205.728 48.4479 205.856 48.9599V49.2479C205.856 49.5039 205.92 49.6959 206.048 49.8239C206.496 50.2079 206.784 50.6879 206.912 51.2639C207.104 51.7759 207.232 52.2879 207.296 52.7999C207.424 53.3119 207.2 53.6319 206.624 53.7599L205.472 53.9519C205.088 53.9519 204.704 54.0159 204.32 54.1439L202.976 54.3359C202.528 54.3359 202.08 54.3999 201.632 54.5279C201.184 54.5919 200.704 54.6559 200.192 54.7199C199.68 54.7839 199.264 54.8479 198.944 54.9119C198.432 54.9759 197.952 55.0399 197.504 55.1039Z" fill="#F18E00"/>
<path d="M269.056 83.9999C268.864 83.9359 268.64 83.8719 268.384 83.8079L267.808 83.6159C267.296 83.4239 266.784 83.1679 266.272 82.8479C266.016 82.7199 265.824 82.5279 265.696 82.2719C265.248 81.5679 264.832 80.9279 264.448 80.3519C264.064 79.7119 263.648 79.0719 263.2 78.4319L262.336 76.8959C261.888 75.9999 261.44 75.1359 260.992 74.3039C260.544 73.4079 260.096 72.5439 259.648 71.7119C259.52 71.3919 259.36 71.1359 259.168 70.9439L258.784 70.1759C258.336 69.4719 257.92 68.7679 257.536 68.0639C257.152 67.2959 256.768 66.5599 256.384 65.8559L253.984 61.1519C253.344 59.8719 252.704 58.6239 252.064 57.4079L250.144 53.5679C250.016 53.4399 249.888 53.2479 249.76 52.9919C249.504 52.2879 249.184 51.6159 248.8 50.9759L247.84 49.0559C247.584 48.6079 247.36 48.1599 247.168 47.7119C246.976 47.1999 246.752 46.7199 246.496 46.2719L245.44 44.3519C245.312 44.3519 245.216 44.3199 245.152 44.2559L245.056 44.3519V44.4479C244.992 45.2799 244.928 46.1439 244.864 47.0399C244.8 47.9359 244.8 48.8319 244.864 49.7279C244.992 50.1119 244.992 50.5279 244.864 50.9759C244.736 52.1279 244.768 53.1519 244.96 54.0479C245.024 54.3039 245.024 54.5599 244.96 54.8159C244.96 55.0719 244.928 55.3599 244.864 55.6799C244.8 56.1279 244.768 56.5439 244.768 56.9279C244.768 57.3119 244.736 57.7279 244.672 58.1759C244.8 58.4319 244.864 58.7199 244.864 59.0399C244.864 59.2959 244.832 59.5519 244.768 59.8079C244.576 60.4479 244.576 61.1199 244.768 61.8239C244.896 62.0159 244.896 62.2079 244.768 62.3999C244.512 62.9759 244.448 63.6799 244.576 64.5119C244.768 65.5999 244.704 66.7839 244.384 68.0639C244.32 68.1919 244.288 68.4159 244.288 68.7359C244.224 68.9919 244.288 69.2159 244.48 69.4079C244.736 69.5359 244.8 69.6959 244.672 69.8879C244.608 70.7199 244.608 71.5839 244.672 72.4799V72.5759H244.576C244.512 72.5759 244.48 72.5439 244.48 72.4799C244.416 72.4159 244.384 72.3519 244.384 72.2879C244.256 72.1599 244.192 72.1919 244.192 72.3839C244.192 72.7039 244.224 72.8959 244.288 72.9599C244.416 73.2799 244.48 73.5999 244.48 73.9199V74.8799V77.8559C244.48 78.0479 244.448 78.2399 244.384 78.4319C244.384 78.6239 244.288 78.7839 244.096 78.9119C243.84 78.9759 243.712 79.1999 243.712 79.5839C243.648 80.2879 243.392 80.8959 242.944 81.4079C242.56 81.9199 242.112 82.3679 241.6 82.7519C241.344 82.9439 241.024 83.0719 240.64 83.1359C240.32 83.1359 240 83.1039 239.68 83.0399L237.952 82.4639C237.824 82.4639 237.696 82.3679 237.568 82.1759L236.992 81.5999C236.8 81.3439 236.576 81.1199 236.32 80.9279C236 80.7359 235.776 80.3839 235.648 79.8719C235.584 79.5519 235.488 79.1999 235.36 78.8159C235.232 78.4319 235.168 78.0479 235.168 77.6639V76.4159C235.232 76.0319 235.264 75.6159 235.264 75.1679C235.328 74.8479 235.36 74.5599 235.36 74.3039C235.36 73.9839 235.392 73.6639 235.456 73.3439V38.2079V37.2479C235.52 36.9279 235.584 36.6399 235.648 36.3839V35.4239C235.712 35.1039 235.744 34.7839 235.744 34.4639V33.3119C235.808 32.9279 235.872 32.5759 235.936 32.2559C236 31.9999 236.032 31.7759 236.032 31.5839V30.9119V27.9359C236.032 27.4879 236.064 27.1039 236.128 26.7839C236.256 26.3999 236.352 26.0159 236.416 25.6319L236.704 25.1519C236.896 24.9599 237.056 24.6719 237.184 24.2879C237.312 23.9039 237.504 23.7119 237.76 23.7119C237.952 23.5839 238.144 23.4879 238.336 23.4239C238.528 23.2959 238.656 23.1039 238.72 22.8479L238.816 22.7519H239.008C239.072 22.6879 239.136 22.6559 239.2 22.6559C239.456 22.6559 239.648 22.5919 239.776 22.4639C239.968 22.3359 240.192 22.3039 240.448 22.3679C240.704 22.4319 240.96 22.4639 241.216 22.4639C241.472 22.4639 241.728 22.4959 241.984 22.5599C243.392 22.8159 244.384 23.6479 244.96 25.0559L245.536 26.9759C245.6 27.6159 245.888 28.2239 246.4 28.7999C246.784 29.2479 247.168 29.7279 247.552 30.2399C247.936 30.7519 248.352 31.2639 248.8 31.7759C250.464 33.8879 252 36.2559 253.408 38.8799L253.792 39.6479L254.176 40.4159L259.168 50.4959C259.552 51.1999 259.904 51.9359 260.224 52.7039C260.608 53.4079 261.024 54.1119 261.472 54.8159L261.856 55.5839C261.984 55.7759 262.08 55.9999 262.144 56.2559C262.464 57.0239 262.848 57.7919 263.296 58.5599V58.6559C263.36 58.6559 263.392 58.6239 263.392 58.5599H263.488L263.584 58.4639L263.872 55.1039V54.1439C263.936 53.8239 263.968 53.5039 263.968 53.1839C264.032 52.7999 264.096 52.4479 264.16 52.1279C264.224 51.9359 264.224 51.7119 264.16 51.4559C264.16 51.1999 264.192 50.9439 264.256 50.6879V49.5359C264.32 49.0879 264.384 48.6719 264.448 48.2879C264.512 48.0959 264.544 47.9039 264.544 47.7119V47.0399V44.4479H264.448V41.8559V40.8959C264.448 40.5759 264.384 40.2559 264.256 39.9359C264.192 39.7439 264.16 39.4559 264.16 39.0719L264.256 38.3999C264.256 38.2079 264.224 38.0479 264.16 37.9199V37.3439C264.224 37.0879 264.192 36.8319 264.064 36.5759C263.936 36.3199 263.872 36.0639 263.872 35.8079C263.936 35.5519 263.968 35.2959 263.968 35.0399V34.2719C263.968 34.0159 263.84 33.8879 263.584 33.8879C263.52 33.8879 263.488 33.8239 263.488 33.6959C263.424 33.5039 263.424 33.3439 263.488 33.2159C263.616 32.8959 263.68 32.5439 263.68 32.1599V31.0079V28.2239C263.616 27.8399 263.648 27.4559 263.776 27.0719C263.904 26.6879 264.064 26.3359 264.256 26.0159L264.64 25.4399C264.96 25.1199 265.312 24.7999 265.696 24.4799L266.848 23.5199L267.232 23.3279C267.552 23.2639 267.84 23.1999 268.096 23.1359C268.416 23.0719 268.736 23.0719 269.056 23.1359C269.312 23.1359 269.504 23.1679 269.632 23.2319C269.888 23.3599 270.144 23.5199 270.4 23.7119C270.656 23.8399 270.912 23.9999 271.168 24.1919C271.296 24.2559 271.36 24.3199 271.36 24.3839L271.552 24.5759C271.68 24.7039 271.776 24.8639 271.84 25.0559C271.968 25.1839 272.064 25.3119 272.128 25.4399C272.448 25.6959 272.64 26.0159 272.704 26.3999C272.832 26.7199 272.928 27.0399 272.992 27.3599V31.3919V32.7359C273.056 33.1199 273.12 33.5359 273.184 33.9839C273.248 34.2399 273.28 34.4959 273.28 34.7519V35.4239V37.0559C273.344 37.5679 273.376 38.0799 273.376 38.5919V39.2639C273.376 39.7119 273.344 40.1599 273.28 40.6079V41.8559V46.0799C273.28 46.7199 273.248 47.3919 273.184 48.0959C273.184 48.7359 273.216 49.4079 273.28 50.1119C273.28 50.3679 273.248 50.5599 273.184 50.6879C273.12 51.3279 273.088 51.9679 273.088 52.6079C273.088 53.1839 273.056 53.7919 272.992 54.4319V55.2959C272.992 55.6159 272.96 55.9359 272.896 56.2559C272.832 56.5119 272.8 56.7679 272.8 57.0239C272.864 57.2799 272.896 57.5359 272.896 57.7919C273.024 58.3679 273.056 58.9439 272.992 59.5199C272.992 60.0959 272.96 60.6719 272.896 61.2479C272.832 62.2719 272.768 63.3279 272.704 64.4159C272.704 65.4399 272.768 66.4959 272.896 67.5839V68.4479C272.96 68.7679 272.992 69.0879 272.992 69.4079C272.928 70.3679 272.96 71.2959 273.088 72.1919L273.664 74.8799L274.048 76.7999C274.176 77.3759 274.272 78.0159 274.336 78.7199C274.336 78.9759 274.304 79.1359 274.24 79.1999C274.176 79.3279 274.112 79.4879 274.048 79.6799C273.984 79.8079 273.952 79.9359 273.952 80.0639C273.888 80.5759 273.696 81.0559 273.376 81.5039C273.12 81.9519 272.832 82.3999 272.512 82.8479C271.68 83.9359 270.528 84.3199 269.056 83.9999Z" fill="#F18E00"/>
<path fill-rule="evenodd" clip-rule="evenodd" d="M392.48 85.0561C391.264 85.1841 390.272 84.8001 389.504 83.9041C389.12 83.5201 388.768 83.1041 388.448 82.6561C388.128 82.2081 387.872 81.7281 387.68 81.2161C387.36 80.3201 387.072 79.4241 386.816 78.5281C386.56 77.5681 386.336 76.6401 386.144 75.7441C385.952 75.0401 385.856 74.3681 385.856 73.7281C385.792 73.0241 385.696 72.3521 385.568 71.7121C385.504 71.0081 385.472 70.3041 385.472 69.6001V68.4481C385.472 68.0001 385.44 67.5841 385.376 67.2001C385.312 66.9441 385.28 66.7201 385.28 66.5281V65.8561V63.1681C385.28 62.2081 385.248 61.2801 385.184 60.3841C385.184 59.8721 385.152 59.4241 385.088 59.0401C385.024 58.5921 384.896 58.1441 384.704 57.6961C384.448 56.9921 384.416 56.2241 384.608 55.3921C384.608 55.2001 384.64 55.0721 384.704 55.0081C384.832 54.5601 384.896 54.1121 384.896 53.6641C384.96 53.2161 384.96 52.7681 384.896 52.3201C384.832 52.0001 384.8 51.6801 384.8 51.3601V50.4961C384.736 49.7921 384.704 49.0881 384.704 48.3841C384.768 47.6161 384.832 46.8801 384.896 46.1761C384.96 45.9841 384.992 45.7921 384.992 45.6001V45.0241C384.928 44.3201 384.928 43.6481 384.992 43.0081C385.12 42.3681 385.216 41.7281 385.28 41.0881C385.408 40.3201 385.536 39.5841 385.664 38.8801C385.792 38.1121 385.952 37.3441 386.144 36.5761C386.272 36.2561 386.336 35.9041 386.336 35.5201V34.3681C386.336 34.0481 386.304 33.7281 386.24 33.4081V32.5441V31.9681C386.24 31.7761 386.272 31.5841 386.336 31.3921C386.4 31.2001 386.432 31.0081 386.432 30.8161C386.432 30.6241 386.464 30.4961 386.528 30.4321C386.72 30.1761 386.88 29.9521 387.008 29.7601C387.136 29.5041 387.328 29.2801 387.584 29.0881C387.904 28.8961 388.192 28.7041 388.448 28.5121C388.768 28.3201 389.056 28.1601 389.312 28.0321C389.632 27.9041 389.888 27.7441 390.08 27.5521C390.336 27.2321 390.592 26.9441 390.848 26.6881C391.168 26.3681 391.424 26.0161 391.616 25.6321C391.936 25.3121 392.256 24.9601 392.576 24.5761C392.96 24.1281 393.376 23.7761 393.824 23.5201C393.952 23.4561 394.144 23.2961 394.4 23.0401C395.168 22.3361 396.064 21.8881 397.088 21.6961C397.28 21.6321 397.44 21.6001 397.568 21.6001C397.76 21.5361 397.952 21.5041 398.144 21.5041L398.816 21.2161C399.328 21.0241 399.776 21.1201 400.16 21.5041C400.288 21.6961 400.448 21.8881 400.64 22.0801C400.896 22.2081 401.12 22.3361 401.312 22.4641C401.824 22.9121 402.304 23.3921 402.752 23.9041C403.264 24.4161 403.712 24.9921 404.096 25.6321C404.736 26.6561 405.28 27.6801 405.728 28.7041C406.24 29.7281 406.72 30.7841 407.168 31.8721L408.896 36.0001C408.96 36.3841 409.12 36.7361 409.376 37.0561C409.888 38.0161 410.272 39.0081 410.528 40.0321C410.784 40.9921 411.04 41.9841 411.296 43.0081C411.36 43.1361 411.392 43.2641 411.392 43.3921C411.456 43.5201 411.488 43.6481 411.488 43.7761C411.616 44.2881 411.712 44.8321 411.776 45.4081C411.904 45.9201 411.936 46.4321 411.872 46.9441C411.936 47.5201 411.904 48.0961 411.776 48.6721C411.712 49.1841 411.616 49.6961 411.488 50.2081C411.296 50.8481 411.072 51.4561 410.816 52.0321C410.56 52.5441 410.272 53.0881 409.952 53.6641C409.824 54.0481 409.6 54.4001 409.28 54.7201C408.96 55.0401 408.64 55.3281 408.32 55.5841C407.808 55.8401 407.296 56.2241 406.784 56.7361C406.656 56.8641 406.496 56.9601 406.304 57.0241C406.176 57.0881 406.048 57.1841 405.92 57.3121C405.472 57.5041 404.992 57.7281 404.48 57.9841L402.944 58.5601C402.88 58.5601 402.848 58.6241 402.848 58.7521C402.848 58.8161 402.88 58.8801 402.944 58.9441L405.536 60.7681C405.856 60.9601 406.144 61.1521 406.4 61.3441C406.656 61.4721 406.912 61.6321 407.168 61.8241L407.744 62.1121C408.512 62.5601 409.28 63.0401 410.048 63.5521C410.816 64.0641 411.552 64.5761 412.256 65.0881C413.6 65.9201 414.944 66.7841 416.288 67.6801C417.632 68.5121 418.912 69.4401 420.128 70.4641C421.216 71.2961 422.176 72.2561 423.008 73.3441C423.2 73.5361 423.392 73.7601 423.584 74.0161C423.776 74.2081 424 74.3681 424.256 74.4961L424.544 74.7841C425.568 75.6801 426.144 76.8961 426.272 78.4321C426.272 78.6241 426.24 78.8161 426.176 79.0081V79.5841C426.176 79.9681 426.048 80.2881 425.792 80.5441C425.536 80.6721 425.408 80.8321 425.408 81.0241C425.216 81.4721 424.928 81.7921 424.544 81.9841C424.224 82.1121 423.904 82.3041 423.584 82.5601C423.456 82.6241 423.232 82.6561 422.912 82.6561C422.528 82.5921 422.112 82.5281 421.664 82.4641C421.28 82.4001 420.896 82.3681 420.512 82.3681C420 82.3681 419.456 82.1441 418.88 81.6961C418.496 81.3761 418.144 81.0881 417.824 80.8321C417.504 80.5121 417.184 80.1281 416.864 79.6801C416.032 78.5281 414.944 77.4721 413.6 76.5121C412.96 76.0001 412.352 75.5201 411.776 75.0721C411.2 74.6241 410.56 74.2081 409.856 73.8241L408.512 73.0561C408.128 72.7361 407.68 72.4481 407.168 72.1921C405.568 71.1041 403.936 70.0481 402.272 69.0241L397.28 65.7601C397.024 65.5681 396.736 65.3761 396.416 65.1841L395.456 64.6081C395.328 64.4801 395.136 64.3521 394.88 64.2241C394.624 64.2241 394.496 64.3201 394.496 64.5121C394.496 64.5761 394.464 64.6401 394.4 64.7041V64.8001V65.3761C394.4 65.5681 394.432 65.7601 394.496 65.9521C394.56 66.4641 394.592 66.9761 394.592 67.4881V68.9281V70.0801C394.656 70.4001 394.72 70.7521 394.784 71.1361V71.8081C394.848 72.0001 394.88 72.1921 394.88 72.3841C394.816 72.9601 394.848 73.5361 394.976 74.1121C395.104 74.6881 395.2 75.2641 395.264 75.8401L395.84 78.3361C395.904 78.5921 395.968 78.8801 396.032 79.2001C396.096 79.4561 396.16 79.7441 396.224 80.0641C396.288 80.3201 396.288 80.5761 396.224 80.8321C396.224 81.0241 396.192 81.2481 396.128 81.5041C396.128 81.5681 396.064 81.6641 395.936 81.7921C395.616 81.8561 395.392 82.0801 395.264 82.4641C395.072 82.9121 394.784 83.2961 394.4 83.6161C394.08 84.0001 393.728 84.3521 393.344 84.6721C393.28 84.7361 393.152 84.8001 392.96 84.8641C392.768 84.9281 392.608 84.9921 392.48 85.0561ZM396.416 51.4561H396.224C395.584 51.5201 395.168 51.4881 394.976 51.3601C394.848 51.2321 394.784 50.8481 394.784 50.2081V49.1521C394.784 48.7681 394.752 48.3841 394.688 48.0001C394.688 47.8081 394.656 47.6161 394.592 47.4241C394.592 47.2321 394.624 47.0401 394.688 46.8481C394.816 45.9521 394.848 45.0241 394.784 44.0641C394.784 43.1041 394.816 42.1761 394.88 41.2801V37.1521V36.2881L395.072 35.5201C395.136 34.7521 395.328 34.0481 395.648 33.4081C396.032 32.7681 396.448 32.1601 396.896 31.5841C397.024 31.4561 397.12 31.3921 397.184 31.3921C397.44 31.1361 397.664 31.1361 397.856 31.3921L398.24 31.7761C398.304 31.9041 398.368 32.0641 398.432 32.2561L398.624 32.6401C398.944 33.2161 399.232 33.8241 399.488 34.4641C399.744 35.0401 399.968 35.6481 400.16 36.2881L401.024 38.5921C401.472 39.6161 401.856 40.7041 402.176 41.8561C402.496 42.9441 402.784 44.0641 403.04 45.2161C403.168 45.6641 403.232 46.1121 403.232 46.5601C403.296 46.9441 403.296 47.3601 403.232 47.8081C403.232 48.3841 403.008 48.8961 402.56 49.3441C402.048 49.8561 401.44 50.2081 400.736 50.4001C400.032 50.6561 399.296 50.8801 398.528 51.0721L396.416 51.4561Z" fill="#F18E00"/>
<path fill-rule="evenodd" clip-rule="evenodd" d="M474.113 90.1439C473.537 90.1439 473.025 89.9199 472.577 89.4719L472.193 88.8959L471.809 88.3199C471.233 86.9759 470.945 85.5679 470.945 84.0959L470.657 81.7919C470.465 80.8959 470.305 79.9999 470.177 79.1039C470.049 78.2079 469.825 77.3439 469.505 76.5119L468.929 74.8799C468.929 74.7519 468.897 74.6239 468.833 74.4959C468.833 74.3679 468.801 74.2399 468.737 74.1119L467.297 69.0239C467.233 68.8959 467.169 68.7359 467.105 68.5439C467.105 68.3519 467.041 68.1919 466.913 68.0639C466.721 67.6799 466.561 67.2959 466.433 66.9119C466.369 66.4639 466.273 66.0159 466.145 65.5679C466.081 65.2479 466.017 64.9599 465.953 64.7039C465.889 64.3839 465.793 64.0639 465.665 63.7439C465.537 63.3599 465.409 63.1359 465.281 63.0719C465.153 62.9439 464.865 62.9439 464.417 63.0719C464.097 63.1359 463.745 63.1999 463.361 63.2639C463.041 63.2639 462.721 63.3279 462.401 63.4559C462.145 63.5199 461.825 63.5839 461.441 63.6479C461.121 63.6479 460.801 63.6799 460.481 63.7439L459.137 64.0319C458.817 64.0959 458.465 64.1919 458.081 64.3199C457.761 64.3839 457.441 64.4159 457.121 64.4159L455.393 64.7039C454.881 64.8319 454.337 64.9599 453.761 65.0879C453.185 65.2159 452.641 65.3439 452.129 65.4719C450.593 65.8559 449.057 66.1439 447.521 66.3359C447.009 66.4639 446.721 66.6879 446.657 67.0079C446.593 67.0079 446.561 67.0399 446.561 67.1039C446.177 68.1279 445.729 69.1519 445.217 70.1759C444.769 71.1359 444.289 72.1279 443.777 73.1519L443.393 73.9199C443.329 74.1119 443.233 74.3359 443.105 74.5919C443.041 74.7199 442.977 74.8799 442.913 75.0719L442.721 75.4559C442.337 75.9039 442.145 76.4479 442.145 77.0879C442.081 77.4719 441.953 77.8559 441.761 78.2399L441.185 79.1999C441.121 79.3919 440.993 79.4879 440.801 79.4879C440.545 79.5519 440.289 79.6479 440.033 79.7759C439.777 79.9039 439.489 80.0319 439.169 80.1599C438.977 80.2239 438.785 80.2239 438.593 80.1599C438.465 80.0959 438.305 80.0319 438.113 79.9679C437.985 79.8399 437.857 79.7759 437.729 79.7759C437.025 79.7119 436.513 79.2959 436.193 78.5279C435.681 77.5039 435.329 76.4799 435.137 75.4559C435.073 75.1999 435.073 74.9759 435.137 74.7839C435.265 74.5919 435.361 74.3999 435.425 74.2079C435.809 73.9519 436.033 73.6639 436.097 73.3439V73.2479C436.097 72.4159 436.257 71.6479 436.577 70.9439C436.961 70.1759 437.281 69.4399 437.537 68.7359C437.665 68.3519 437.825 67.9679 438.017 67.5839L438.593 66.4319C438.849 65.9839 439.041 65.5679 439.169 65.1839C439.361 64.7359 439.521 64.2879 439.649 63.8399C439.841 63.3279 439.841 62.8479 439.649 62.3999C439.521 62.0159 439.457 61.6639 439.457 61.3439C439.457 60.9599 439.489 60.5759 439.553 60.1919C439.553 59.4879 439.809 58.8799 440.321 58.3679C440.577 58.0479 440.833 57.7919 441.089 57.5999C441.409 57.3439 441.697 57.0879 441.953 56.8319C442.529 56.2559 442.977 55.4879 443.297 54.5279C443.553 53.6959 443.745 52.8639 443.873 52.0319C444.065 51.1359 444.257 50.2719 444.449 49.4399C444.577 48.6079 444.705 47.8079 444.833 47.0399C445.025 46.2079 445.217 45.4079 445.409 44.6399C445.473 44.3199 445.537 44.0319 445.601 43.7759C445.729 43.4559 445.825 43.1679 445.889 42.9119C446.081 42.3999 446.273 41.9199 446.465 41.4719C446.657 40.9599 446.785 40.4479 446.849 39.9359C446.977 39.6799 446.977 39.4559 446.849 39.2639C446.785 38.9439 446.785 38.6559 446.849 38.3999C446.977 38.1439 447.073 37.8879 447.137 37.6319C447.329 37.1839 447.457 36.7359 447.521 36.2879C447.649 35.8399 447.809 35.3919 448.001 34.9439C448.321 34.1119 448.577 33.4399 448.769 32.9279C449.025 32.3519 449.249 31.7119 449.441 31.0079C449.569 30.6239 449.697 30.2719 449.825 29.9519C450.017 29.5679 450.145 29.1839 450.209 28.7999C450.401 28.2239 450.561 27.6479 450.689 27.0719C450.817 26.4319 450.881 25.8239 450.881 25.2479C451.009 24.7359 451.137 24.3839 451.265 24.1919C451.585 23.5519 451.969 23.0079 452.417 22.5599C452.929 22.1119 453.409 21.6639 453.857 21.2159C454.177 21.0239 454.497 20.8959 454.817 20.8319C455.137 20.7039 455.457 20.7359 455.777 20.9279C456.033 21.0559 456.193 21.1199 456.257 21.1199C456.833 21.0559 457.313 21.1839 457.697 21.5039C458.081 21.8239 458.401 22.2079 458.657 22.6559C458.785 22.7839 458.881 22.9439 458.945 23.1359C459.009 23.3279 459.073 23.4879 459.137 23.6159C459.457 24.1279 459.617 24.6399 459.617 25.1519C459.617 25.4079 459.649 25.6959 459.713 26.0159C459.777 26.2719 459.841 26.5599 459.905 26.8799C460.097 27.2639 460.385 27.4559 460.769 27.4559C460.833 27.3919 460.897 27.3919 460.961 27.4559C461.025 27.5199 461.057 27.5839 461.057 27.6479C461.377 28.0319 461.473 28.4479 461.345 28.8959C461.217 29.4079 461.185 29.9199 461.249 30.4319C461.377 30.8799 461.505 31.3599 461.633 31.8719L462.401 33.7919L463.169 35.7119L464.129 37.8239C464.449 38.5279 464.737 39.2319 464.993 39.9359L465.953 42.6239C466.337 43.5199 466.753 44.4159 467.201 45.3119L467.489 46.3679L467.681 47.1359C467.809 47.3919 467.905 47.6479 467.969 47.9039C468.097 48.0959 468.193 48.2879 468.257 48.4799C468.385 48.6719 468.513 48.8319 468.641 48.9599C468.961 49.4079 469.153 49.8879 469.217 50.3999C469.409 51.0399 469.697 51.6159 470.081 52.1279C470.209 52.3199 470.401 52.4159 470.657 52.4159C471.617 52.2879 472.577 52.1919 473.537 52.1279C474.497 51.9999 475.457 51.8079 476.417 51.5519C477.121 51.3599 477.793 51.2639 478.433 51.2639C479.649 51.2639 480.769 51.6799 481.793 52.5119C483.009 53.4719 483.649 54.6879 483.713 56.1599C483.713 56.4799 483.745 56.7359 483.809 56.9279C483.809 57.3759 483.681 57.7279 483.425 57.9839C483.361 58.1759 483.233 58.3679 483.041 58.5599L482.657 59.1359C482.529 59.3919 482.401 59.5839 482.273 59.7119L481.697 60.1919C481.633 60.3199 481.537 60.4799 481.409 60.6719C481.281 60.7999 481.121 60.8959 480.929 60.9599C480.673 61.0239 480.417 61.1199 480.161 61.2479C479.905 61.3119 479.617 61.3439 479.297 61.3439C478.145 61.4719 477.121 61.4399 476.225 61.2479H474.689C474.561 61.2479 474.369 61.3119 474.113 61.4399C473.857 61.5679 473.729 61.7279 473.729 61.9199V62.3039C473.921 62.8799 474.049 63.4879 474.113 64.1279C474.241 64.7039 474.433 65.2479 474.689 65.7599C474.689 66.0159 474.753 66.2719 474.881 66.5279C475.201 67.1039 475.457 67.7119 475.649 68.3519C475.841 68.9279 476.001 69.5359 476.129 70.1759C476.129 70.3039 476.193 70.5599 476.321 70.9439C476.513 71.3919 476.673 71.8719 476.801 72.3839C476.929 72.8319 477.025 73.3119 477.089 73.8239C477.089 74.2079 477.185 74.5599 477.377 74.8799C477.633 75.4559 477.825 76.0319 477.953 76.6079C478.081 77.1839 478.177 77.7919 478.241 78.4319C478.305 78.4959 478.337 78.6239 478.337 78.8159C478.337 78.9439 478.369 79.0719 478.433 79.1999C478.753 79.9039 478.977 80.6719 479.105 81.5039C479.233 82.2719 479.393 83.0399 479.585 83.8079C479.713 84.1919 479.777 84.5759 479.777 84.9599C479.841 85.4079 479.873 85.8559 479.873 86.3039C479.873 86.6239 479.777 86.9759 479.585 87.3599L479.297 87.6479C478.913 87.7119 478.689 87.9359 478.625 88.3199L478.337 88.8959C478.209 89.1519 478.017 89.3119 477.761 89.3759C477.505 89.3759 477.281 89.4719 477.089 89.6639C476.833 89.9199 476.481 90.0479 476.033 90.0479H475.073C474.753 90.0479 474.433 90.0799 474.113 90.1439ZM452.129 55.1039L450.977 55.2959C450.913 55.2959 450.817 55.2639 450.689 55.1999C450.561 55.0719 450.529 54.9759 450.593 54.9119L451.457 51.1679C451.585 50.7199 451.681 50.3039 451.745 49.9199L451.937 48.5759C452.065 47.8079 452.225 47.0399 452.417 46.2719C452.673 45.5039 452.929 44.7999 453.185 44.1599L453.377 43.5839C453.441 43.3919 453.473 43.2319 453.473 43.1039C453.793 42.0159 454.145 40.9919 454.529 40.0319C454.977 39.0719 455.361 38.1119 455.681 37.1519L455.873 36.8639H456.161L456.449 37.2479L456.833 38.5919L457.409 39.9359L458.561 43.3919C458.753 43.8399 458.913 44.2879 459.041 44.7359C459.233 45.1199 459.393 45.5679 459.521 46.0799C459.713 46.5279 459.873 47.0079 460.001 47.5199C460.193 47.9679 460.353 48.4479 460.481 48.9599V49.2479C460.481 49.5039 460.545 49.6959 460.673 49.8239C461.121 50.2079 461.409 50.6879 461.537 51.2639C461.729 51.7759 461.857 52.2879 461.921 52.7999C462.049 53.3119 461.825 53.6319 461.249 53.7599L460.097 53.9519C459.713 53.9519 459.329 54.0159 458.945 54.1439L457.601 54.3359C457.153 54.3359 456.705 54.3999 456.257 54.5279C455.809 54.5919 455.329 54.6559 454.817 54.7199C454.305 54.7839 453.889 54.8479 453.569 54.9119C453.057 54.9759 452.577 55.0399 452.129 55.1039Z" fill="#F18E00"/>
<path fill-rule="evenodd" clip-rule="evenodd" d="M357.054 85.056C356.414 84.992 355.774 84.8959 355.134 84.7679C354.558 84.7039 353.982 84.544 353.406 84.288L351.006 83.424C350.174 83.104 349.406 82.7519 348.702 82.3679L346.59 81.024C346.27 80.704 345.95 80.416 345.63 80.16C345.31 79.84 344.99 79.5519 344.67 79.2959L343.134 77.76C342.622 77.184 342.142 76.5759 341.694 75.9359L339.39 72.384C338.814 71.488 338.302 70.5599 337.854 69.5999C337.406 68.5759 337.022 67.552 336.702 66.528C335.998 64.608 335.646 62.7199 335.646 60.8639V59.3279C335.646 57.7279 335.742 56.16 335.934 54.624C336.062 53.344 336.35 52.1919 336.798 51.1679C337.054 50.5279 337.278 49.888 337.47 49.248C337.662 48.608 337.886 48 338.142 47.424L338.43 46.7519C338.558 45.9199 338.846 45.184 339.294 44.544C339.742 43.84 340.126 43.168 340.446 42.528C340.702 42.016 340.99 41.5679 341.31 41.1839C341.63 40.7359 341.918 40.288 342.174 39.84C342.302 39.648 342.462 39.488 342.654 39.36C342.846 39.168 343.006 38.976 343.134 38.784C343.262 38.656 343.358 38.496 343.422 38.304C343.55 38.048 343.646 37.824 343.71 37.632C343.838 37.44 344.062 37.1839 344.382 36.8639C344.766 36.6719 345.118 36.224 345.438 35.52C345.566 35.264 345.694 35.072 345.822 34.944C346.206 34.624 346.526 34.24 346.782 33.792C347.102 33.344 347.454 32.9279 347.838 32.5439C347.838 32.5439 351.546 29.2041 354.462 29.088C357.662 28.9606 361.854 32.64 361.854 32.64C362.558 33.28 363.23 33.92 363.87 34.56C364.51 35.136 365.118 35.776 365.694 36.48C366.206 36.992 366.622 37.536 366.942 38.112C367.326 38.624 367.678 39.2 367.998 39.84C368.126 40.16 368.286 40.512 368.478 40.896L369.054 41.856C369.374 42.432 369.63 43.04 369.822 43.68L370.59 45.5999V45.6959C370.718 46.1439 370.814 46.624 370.878 47.136C371.006 47.584 371.198 48.064 371.454 48.576C371.646 49.024 371.806 49.5039 371.934 50.0159C372.062 50.4639 372.19 50.944 372.318 51.456L372.702 53.1839C372.894 53.7599 373.022 54.3359 373.086 54.9119L373.278 55.68C373.342 55.872 373.406 56.096 373.47 56.352L373.854 58.08C373.982 58.656 374.078 59.2319 374.142 59.8079L374.43 60.4799C374.558 60.8639 374.686 61.3759 374.814 62.0159C375.006 62.8479 375.102 63.68 375.102 64.512C375.166 65.344 375.166 66.2079 375.102 67.1039C375.102 67.5519 375.07 67.904 375.006 68.16C374.622 69.504 374.142 70.88 373.566 72.288L372.798 73.632C372.542 74.016 372.286 74.4319 372.03 74.8799L371.166 76.2239C370.846 76.7999 370.494 77.312 370.11 77.76C369.47 78.784 368.702 79.6799 367.806 80.4479C366.91 81.2159 365.95 81.9519 364.926 82.6559C362.686 84.3839 360.062 85.184 357.054 85.056ZM360.126 74.4C359.166 75.168 358.014 75.552 356.67 75.552C355.966 75.552 355.23 75.3599 354.462 74.9759C353.758 74.5919 353.054 74.144 352.35 73.632C351.71 73.12 351.102 72.5439 350.526 71.9039C350.334 71.6479 350.11 71.392 349.854 71.136L349.278 70.3679C348.446 69.2799 347.71 68.128 347.07 66.912C346.43 65.696 345.854 64.4479 345.342 63.1679C344.958 62.2719 344.766 61.44 344.766 60.672C344.702 60.48 344.67 60.288 344.67 60.096C344.67 59.904 344.638 59.712 344.574 59.52V58.7519V57.312L344.766 55.9679C344.766 55.7759 344.83 55.488 344.958 55.104C345.726 52.48 346.782 50.0799 348.126 47.9039L349.278 46.1759C349.662 45.5999 350.078 45.024 350.526 44.448L351.486 43.104C351.87 42.656 352.222 42.2079 352.542 41.7599L353.502 40.608L354.558 39.5519C354.878 39.2319 355.134 39.2 355.326 39.456C355.454 39.52 355.55 39.584 355.614 39.648C355.742 39.648 355.838 39.712 355.902 39.84C356.286 40.16 356.67 40.512 357.054 40.896C357.438 41.216 357.79 41.568 358.11 41.952C358.75 42.656 359.326 43.424 359.838 44.256C360.35 45.088 360.83 45.9519 361.278 46.8479L361.47 47.424L361.662 48L362.43 50.4959C362.686 51.3279 362.91 52.16 363.102 52.992C363.23 53.312 363.326 53.632 363.39 53.952C363.454 54.272 363.454 54.5919 363.39 54.9119C363.326 55.1679 363.39 55.5199 363.582 55.9679C363.838 56.7359 364.03 57.536 364.158 58.368C364.286 59.136 364.446 59.936 364.638 60.768L365.214 63.936C365.342 65.088 365.342 66.2399 365.214 67.3919L364.926 68.3519C364.222 69.8239 363.262 71.2319 362.046 72.5759C361.79 72.8959 361.47 73.216 361.086 73.536C360.766 73.792 360.446 74.08 360.126 74.4Z" fill="#F18E00"/>
<path fill-rule="evenodd" clip-rule="evenodd" d="M105 45.2258H85.5497L52.5001 58.6671V98.5213L58.035 104.232L78.75 98.9908L82.0708 88.8703L105 82.7032V45.2258ZM52.5001 98.5213L52.342 98.3582L46.7112 104.168L26.25 98.9908L22.9292 88.8704L0 82.7032V45.2258H19.4503L52.5001 58.6671V98.5213Z" fill="#660099"/>
<path fill-rule="evenodd" clip-rule="evenodd" d="M26.25 0L5.06023 5.06023L0 26.7244V40.1656H20.5572L52.4999 53.4487V0H26.25ZM78.75 0L99.9398 5.06023L105 26.7244V40.1656H84.4428L52.4999 53.4487V0H78.75Z" fill="#F18E00"/>
<path fill-rule="evenodd" clip-rule="evenodd" d="M33.0032 62.9917L15.9561 60.7446L19.4359 77.5835L36.4831 79.8306L33.0032 62.9917ZM71.9982 62.9917L89.0454 60.7446L85.5656 77.5835L68.5184 79.8306L71.9982 62.9917Z" fill="#F1FAEE"/>
<path d="M52.3413 35.896L42.3789 46.1746L52.3413 50.1676L62.3036 46.1746L52.3413 35.896Z" fill="#F1FAEE"/>
</g>
<defs>
<clipPath id="clip0_124_14">
<rect width="484" height="105" fill="white"/>
</clipPath>
</defs>
</svg>
